<svg id="Layer_1" data-name="Layer 1" xmlns="http://www.w3.org/2000/svg" xmlns:xlink="http://www.w3.org/1999/xlink" viewBox="0 0 48.02 48"><defs><style>.cls-1{fill:none;}.cls-2{fill:#005c96;}.cls-3{clip-path:url(#clip-path);}.cls-4,.cls-6{fill:#004369;}.cls-5{fill:#d7d8d8;}.cls-6{stroke:#004369;stroke-miterlimit:10;stroke-width:0.44px;}.cls-7{fill:#fff;}</style><clipPath id="clip-path"><circle class="cls-1" cx="24" cy="24" r="24"/></clipPath></defs><circle class="cls-2" cx="24" cy="24" r="24"/><g class="cls-3"><polygon class="cls-4" points="48.02 26.73 29.09 11.45 9.07 27.09 12.61 29.96 11.65 30.53 33.17 48 48 48 48.02 26.73"/></g><path class="cls-5" d="M35.1,38a.39.39,0,0,0,.23-.36l0-2.5h.75a2.25,2.25,0,0,0,2.25-2.25V22.26A2.25,2.25,0,0,0,36.05,20H30.13v4.57a3.1,3.1,0,0,1-.89,2.18,1.28,1.28,0,0,1,.23.75,1.31,1.31,0,0,1-2.6.17H25.79a1.3,1.3,0,0,1-2.58,0H18v5.17a2.25,2.25,0,0,0,2.25,2.25H31.87l2.81,2.78A.4.4,0,0,0,35.1,38Zm-3.27-9.14a1.31,1.31,0,1,1,1.31-1.31A1.31,1.31,0,0,1,31.83,28.82Z"/><path class="cls-6" d="M35,38.62a1.41,1.41,0,0,0,.41-.07l.07,0a1.2,1.2,0,0,0,.75-1.15V35.73a2.19,2.19,0,0,0,1.21-.19,3.11,3.11,0,0,0,1.56-2.69V22.26a2.75,2.75,0,0,0-2.89-2.88H30.13V14a3.1,3.1,0,0,0-3.1-3.1H11.23A3.1,3.1,0,0,0,8.13,14V24.58a3.11,3.11,0,0,0,3,3.1l0,1.64a1.24,1.24,0,0,0,.75,1.15,1.19,1.19,0,0,0,.49.1,1.22,1.22,0,0,0,.86-.36l2.57-2.53h1.6v5.17a2.74,2.74,0,0,0,2.88,2.88H31.52l2.56,2.54A1.28,1.28,0,0,0,35,38.62Zm-.27-.74L31.87,35.1H20.25A2.25,2.25,0,0,1,18,32.85V27.68h9a3.09,3.09,0,0,0,3.1-3.1V20h5.92a2.25,2.25,0,0,1,2.25,2.25V32.85a2.25,2.25,0,0,1-2.25,2.25H35.3l0,2.5a.39.39,0,0,1-.23.36A.4.4,0,0,1,34.68,37.88ZM27,11.74A2.25,2.25,0,0,1,29.28,14V24.58A2.25,2.25,0,0,1,27,26.83H15.41L12.6,29.61a.38.38,0,0,1-.41.08.36.36,0,0,1-.23-.36l0-2.5h-.75A2.25,2.25,0,0,1,9,24.58V14a2.25,2.25,0,0,1,2.25-2.25Z"/><circle class="cls-4" cx="31.83" cy="27.51" r="1.31"/><path class="cls-4" d="M28.17,28.82a1.32,1.32,0,0,1-1.3-1.14H27a3.11,3.11,0,0,0,2.21-.92,1.28,1.28,0,0,1,.23.75A1.31,1.31,0,0,1,28.17,28.82Z"/><path class="cls-4" d="M24.5,28.82a1.31,1.31,0,0,1-1.29-1.14h2.58A1.31,1.31,0,0,1,24.5,28.82Z"/><path class="cls-7" d="M27,11.74H11.23A2.25,2.25,0,0,0,9,14V24.58a2.25,2.25,0,0,0,2.25,2.25H12l0,2.5a.36.36,0,0,0,.23.36.38.38,0,0,0,.41-.08l2.81-2.78H27a2.25,2.25,0,0,0,2.25-2.25V14A2.25,2.25,0,0,0,27,11.74Zm-5.42,7.75a1.31,1.31,0,1,1,1.31,1.31A1.31,1.31,0,0,1,21.61,19.49Zm-4.71,0a1.31,1.31,0,1,1-1.31-1.31A1.31,1.31,0,0,1,16.9,19.49Zm3.67,0a1.31,1.31,0,1,1-1.31-1.31A1.31,1.31,0,0,1,20.57,19.49Z"/><path class="cls-4" d="M21.61,19.49a1.31,1.31,0,1,1,1.31,1.31A1.31,1.31,0,0,1,21.61,19.49Z"/><path class="cls-4" d="M20.57,19.49a1.31,1.31,0,1,1-1.31-1.31A1.31,1.31,0,0,1,20.57,19.49Z"/><path class="cls-4" d="M15.59,20.8a1.31,1.31,0,1,1,1.31-1.31A1.31,1.31,0,0,1,15.59,20.8Z"/></svg>