<?xml version="1.0" encoding="utf-8"?>
<!-- Generator: Adobe Illustrator 25.0.0, SVG Export Plug-In . SVG Version: 6.00 Build 0)  -->
<svg version="1.1" id="Layer_1" xmlns="http://www.w3.org/2000/svg" xmlns:xlink="http://www.w3.org/1999/xlink" x="0px" y="0px"
	 viewBox="0 0 60 60" style="enable-background:new 0 0 60 60;" xml:space="preserve">
<style type="text/css">
	.st0{fill:#B2CECC;}
	.st1{fill:#005D55;}
	.st2{fill:#FAE7C1;}
	.st3{fill:#EEAF30;}
	.st4{display:none;fill:#005D55;}
	.st5{display:none;fill:none;}
</style>
<g>
	<g>
		<path class="st0" d="M0.5,37.9V19.2C0.5,8.9,8.9,0.5,19.2,0.5c5.1,0,9.8,2,13.4,5.5c3.5,3.5,5.4,8.2,5.3,13.2
			c0,10.3-8.4,18.7-18.7,18.7H0.5z M8.3,30.2h19.8v-4H8.3V30.2z M8.3,22.5h16v-4h-16C8.3,18.5,8.3,22.5,8.3,22.5z M8.3,14.8h21.9v-4
			H8.3V14.8z"/>
		<path class="st1" d="M19.2,1c4.9,0,9.6,1.9,13,5.4c3.4,3.4,5.2,8,5.2,12.8c0,10-8.2,18.2-18.2,18.2H1V19.2C1,9.2,9.2,1,19.2,1
			 M7.8,15.3h1h20.9h1v-1v-3v-1h-1H8.8h-1v1v3V15.3 M7.8,23h1h15h1v-1v-3v-1h-1h-15h-1v1v3L7.8,23 M7.8,30.7h1h18.7h0.1h1v-1v-3v-1
			h-1H8.8h-1v1v3V30.7 M19.2,0C8.6,0,0,8.6,0,19.2v19.2h19.2c10.6,0,19.2-8.6,19.2-19.2C38.5,8.6,29.9,0,19.2,0L19.2,0z M8.8,14.3
			v-3h20.9v3H8.8L8.8,14.3z M8.8,22v-3h15v3H8.8L8.8,22z M8.8,29.7v-3h18.8v3h-0.1H8.8L8.8,29.7z"/>
	</g>
	<g>
		<path class="st2" d="M40.8,59.5c-10,0-18.2-7.8-18.7-17.8c10.3-1.2,18.4-9.4,19.6-19.6c10,0.5,17.8,8.6,17.8,18.7v18.7
			C59.5,59.5,40.8,59.5,40.8,59.5z M31,51.3h21.8v-4H31V51.3z M34.2,43.6h18.6v-4H34.2V43.6z"/>
		<path class="st3" d="M42.2,22.6C51.7,23.4,59,31.2,59,40.8V59H40.8c-9.6,0-17.4-7.3-18.2-16.8C32.8,40.8,40.8,32.8,42.2,22.6
			 M33.7,44.1h1h17.6h1v-1v-3v-1h-1H34.7h-1v1v3V44.1 M30.5,51.8h1h20.8h1v-1v-3v-1h-1H31.5h-1v1v3V51.8 M41.3,21.6
			C40.3,32,32,40.3,21.6,41.3C21.9,51.7,30.3,60,40.8,60H60V40.8C60,30.3,51.7,21.9,41.3,21.6L41.3,21.6z M34.7,43.1v-3h17.6v3H34.7
			L34.7,43.1z M31.5,50.8v-3h20.8v3H31.5L31.5,50.8z"/>
	</g>
	<rect x="8.8" y="11.3" class="st4" width="20.9" height="3"/>
	<rect x="8.8" y="19" class="st4" width="15.2" height="3"/>
	<rect x="8.8" y="26.7" class="st4" width="18.8" height="3"/>
	<rect x="34.7" y="37.1" class="st5" width="17.6" height="3"/>
	<rect x="31.5" y="44.8" class="st5" width="20.8" height="3"/>
</g>
</svg>
